<?xml version="1.0" standalone="no"?><!DOCTYPE svg PUBLIC "-//W3C//DTD SVG 1.1//EN" "http://www.w3.org/Graphics/SVG/1.1/DTD/svg11.dtd"><svg t="1728917429844" class="icon" viewBox="0 0 1024 1024" version="1.1" xmlns="http://www.w3.org/2000/svg" p-id="1404" xmlns:xlink="http://www.w3.org/1999/xlink" width="200" height="200"><path d="M513.5 889.02c-22 0-44-4.1-64.93-12.31l-8.66-3.4a773.362 773.362 0 0 1-200.35-115.67l-7.27-5.8c-35.15-28.06-58.21-68-64.93-112.47l-1.39-9.2a773.29 773.29 0 0 1 0-231.34l1.39-9.2c6.72-44.47 29.78-84.41 64.93-112.47l7.27-5.8a773.362 773.362 0 0 1 200.35-115.67l8.66-3.39c41.87-16.42 88-16.41 129.87 0l8.66 3.4a773.362 773.362 0 0 1 200.35 115.67l7.27 5.8c35.15 28.06 58.21 68 64.93 112.47l1.39 9.2a773.29 773.29 0 0 1 0 231.34l-1.39 9.2c-6.72 44.47-29.78 84.41-64.93 112.47l-7.27 5.8A773.362 773.362 0 0 1 587.1 873.32l-8.66 3.39c-20.94 8.21-42.94 12.31-64.94 12.31z m0-714.03c-17.67 0-35.34 3.3-52.16 9.89l-8.66 3.39a738.525 738.525 0 0 0-191.29 110.44l-7.27 5.8c-28.24 22.54-46.76 54.62-52.16 90.35l-1.39 9.2a738.03 738.03 0 0 0 0 220.88l1.39 9.2c5.4 35.72 23.92 67.81 52.16 90.35l7.27 5.8a738.525 738.525 0 0 0 191.29 110.44l8.66 3.4c33.64 13.19 70.68 13.19 104.32 0l8.66-3.4c69-27.05 133.36-64.21 191.29-110.44l7.27-5.8c28.24-22.54 46.76-54.62 52.16-90.35s1.39-9.2 1.39-9.2a738.03 738.03 0 0 0 0-220.88l-1.39-9.2c-5.4-35.72-23.92-67.81-52.16-90.35l-7.27-5.8a738.525 738.525 0 0 0-191.29-110.44l-8.66-3.4c-16.82-6.59-34.49-9.89-52.16-9.89z" fill="#333333" p-id="1405"></path><path d="M513.5 800.94c-9.67 0-17.5-7.83-17.5-17.5V584.86c0-49.26 24.37-94.8 65.2-121.83 54.98-36.4 107-62.45 173.12-92.67 8.79-4.02 19.17-0.15 23.19 8.64 4.02 8.79 0.15 19.17-8.64 23.19-64.58 29.52-115.27 54.88-168.35 90.02-31.01 20.53-49.52 55.16-49.52 92.65v198.58c0 9.67-7.83 17.5-17.5 17.5zM447.67 503.84c-3.54 0-7.12-1.07-10.22-3.3-74.34-53.57-169.84-90.55-170.8-90.91-9.02-3.47-13.53-13.59-10.06-22.61 3.46-9.02 13.58-13.53 22.61-10.07 4.07 1.56 100.61 38.91 178.72 95.19 7.84 5.65 9.62 16.59 3.97 24.43-3.42 4.75-8.78 7.27-14.21 7.27z" fill="#333333" p-id="1406"></path></svg>